#N canvas 239 131 526 543 10;
#X obj 46 44 inlet;
#X obj 296 484 outlet;
#X obj 296 141 openpanel;
#X obj 46 70 route float;
#X obj 296 120 route bang;
#X obj 353 162 symbol;
#X obj 296 86 route open display;
#X obj 46 484 outlet;
#X obj 46 176 until;
#X obj 46 135 t b a, f 10;
#X obj 46 217 f;
#X obj 73 217 + 1;
#X obj 46 450 list, f 6;
#X obj 46 352 <=, f 10;
#X obj 139 389 f;
#X obj 165 160 t b f;
#X obj 46 373 sel;
#X obj 112 389 b;
#X obj 165 389 max;
#X obj 46 238 t a a a;
#N canvas 1155 168 357 344 time_direction_forward 0;
#X obj 39 41 inlet;
#X obj 39 274 outlet;
#X obj 39 110 t a a a, f 17;
#X obj 136 214 -;
#X obj 138 162 change;
#X obj 39 89 change;
#X obj 136 274 outlet;
#X text 38 292 readhead time;
#X text 136 292 direction;
#X obj 229 274 outlet;
#X obj 138 183 t a a a;
#X text 226 292 forward;
#X obj 138 141 > -1;
#X connect 0 0 5 0;
#X connect 2 0 1 0;
#X connect 2 1 12 1;
#X connect 2 2 12 0;
#X connect 3 0 6 0;
#X connect 4 0 10 0;
#X connect 5 0 2 0;
#X connect 10 0 3 1;
#X connect 10 1 3 0;
#X connect 10 2 9 0;
#X connect 12 0 4 0;
#X restore 46 114 pd time_direction_forward;
#X obj 46 280 -;
#X obj 193 264 == 0;
#X obj 96 450 list, f 6;
#X obj 46 422 sel 1 0;
#X obj 46 401 f;
#N canvas 102 125 823 841 prepare_scratchable_arrays 0;
#X msg 118 248 line 0 \, auto;
#X msg 133 269 0;
#X obj 118 462 +;
#X obj 145 462 f;
#X obj 118 340 list split 1;
#X obj 152 361 list split 1;
#X msg 265 319 const 0;
#X obj 181 459 unpack;
#X obj 181 501 swap;
#X obj 181 480 t f f;
#X obj 181 565 swap;
#X obj 118 629 list append;
#X text 408 563 get previous velocity for note;
#X text 60 461 sum time;
#X obj 91 384 f;
#X text 144 406 <-- currently only considers midi channel 1;
#X text 225 561 write velocity to array;
#X obj 91 362 t b f;
#X obj 91 405 sel 144;
#X obj 91 605 f;
#X obj 118 319 text sequence \$0-midi;
#X obj 48 774 outlet;
#X msg 137 125 save temp.midi.txt;
#X msg 120 177 read temp.midi.txt;
#X obj 103 87 t b b b s;
#X msg 256 125 open \$1;
#X obj 137 146 else/midi;
#X obj 120 198 text define \$0-midi;
#X obj 103 66 inlet;
#X obj 91 426 t b b;
#X obj 181 438 list;
#X msg 251 163 read test.txt;
#X obj 42 146 bng 16 250 50 0 empty empty empty 0 -8 0 10 #fcfcfc #000000 #000000;
#X obj 313 243 text size \$0-midi;
#X obj 430 302 array define \$0-pitch;
#X obj 430 323 array define \$0-velocity-right;
#X obj 430 344 array define \$0-velocity-left;
#X obj 395 496 array define \$0-velocities-temp 128;
#X obj 221 544 array set \$0-velocities-temp;
#X obj 398 544 array get \$0-velocities-temp 0 1;
#X msg 313 265 resize \$1;
#X text 305 29 FIXME: create rows including: timestamp \, pitch \, velocity \, duration;
#X obj 430 281 array define \$0-time;
#X obj 118 680 unpack f f f f;
#X obj 218 753 array set \$0-pitch;
#X obj 218 732 array set \$0-velocity-right;
#X obj 218 711 array set \$0-velocity-left;
#X obj 218 774 array set \$0-time;
#X obj 118 655 t a b;
#X obj 241 671 f;
#X obj 268 671 + 1;
#X msg 48 751 duration \$1;
#X msg 138 751 size \$1;
#X obj 103 227 t b b b b b b;
#X obj 138 731 f;
#X obj 265 340 s \$0-velocities-temp;
#X obj 181 607 pack f f f;
#X connect 0 0 20 0;
#X connect 1 0 2 1;
#X connect 1 0 49 1;
#X connect 2 0 3 0;
#X connect 2 0 19 1;
#X connect 2 0 51 0;
#X connect 3 0 2 1;
#X connect 4 0 17 0;
#X connect 4 1 5 0;
#X connect 5 0 14 1;
#X connect 5 1 30 1;
#X connect 6 0 55 0;
#X connect 7 0 9 0;
#X connect 7 1 8 1;
#X connect 8 0 10 0;
#X connect 8 0 38 0;
#X connect 8 1 10 1;
#X connect 8 1 38 1;
#X connect 9 0 8 0;
#X connect 9 1 39 0;
#X connect 10 0 56 0;
#X connect 10 1 56 1;
#X connect 11 0 48 0;
#X connect 14 0 18 0;
#X connect 17 0 14 0;
#X connect 17 1 2 0;
#X connect 18 0 29 0;
#X connect 19 0 11 0;
#X connect 20 0 4 0;
#X connect 22 0 26 0;
#X connect 23 0 27 0;
#X connect 24 0 53 0;
#X connect 24 1 23 0;
#X connect 24 2 22 0;
#X connect 24 3 25 0;
#X connect 25 0 26 0;
#X connect 28 0 24 0;
#X connect 29 0 19 0;
#X connect 29 1 30 0;
#X connect 30 0 7 0;
#X connect 31 0 27 0;
#X connect 32 0 53 0;
#X connect 33 0 40 0;
#X connect 39 0 56 2;
#X connect 40 0 34 0;
#X connect 40 0 36 0;
#X connect 40 0 35 0;
#X connect 40 0 42 0;
#X connect 43 0 47 0;
#X connect 43 1 44 0;
#X connect 43 2 45 0;
#X connect 43 3 46 0;
#X connect 48 0 43 0;
#X connect 48 1 49 0;
#X connect 49 0 50 0;
#X connect 49 0 46 1;
#X connect 49 0 47 1;
#X connect 49 0 45 1;
#X connect 49 0 44 1;
#X connect 49 0 54 1;
#X connect 50 0 49 1;
#X connect 51 0 21 0;
#X connect 52 0 21 0;
#X connect 53 0 54 0;
#X connect 53 1 0 0;
#X connect 53 2 1 0;
#X connect 53 3 6 0;
#X connect 53 5 33 0;
#X connect 54 0 52 0;
#X connect 56 0 11 1;
#X restore 296 217 pd prepare_scratchable_arrays;
#N canvas 636 301 721 579 access_arrays 1;
#X obj 85 256 array get \$0-time 0 1;
#X obj 115 277 array get \$0-pitch 0 1;
#X obj 145 298 array get \$0-velocity-right 0 1;
#X obj 175 319 array get \$0-velocity-left 0 1;
#X obj 85 88 inlet;
#X obj 85 219 t f f f f;
#X obj 226 85 inlet;
#X obj 226 106 route size;
#X obj 85 135 moses 0;
#X obj 124 155 moses;
#X obj 395 487 outlet;
#X obj 88 487 outlet;
#X text 90 506 time;
#X obj 178 487 outlet;
#X text 398 507 bang;
#X obj 141 187 b;
#X text 180 506 note-right;
#X obj 278 487 outlet;
#X text 280 506 note-left;
#X obj 115 413 pack f f;
#X obj 235 413 pack f f;
#X obj 188 131 + 1;
#X connect 0 0 11 0;
#X connect 1 0 19 0;
#X connect 1 0 20 0;
#X connect 2 0 19 1;
#X connect 3 0 20 1;
#X connect 4 0 8 0;
#X connect 5 0 0 0;
#X connect 5 1 1 0;
#X connect 5 2 2 0;
#X connect 5 3 3 0;
#X connect 6 0 7 0;
#X connect 7 0 21 0;
#X connect 8 0 15 0;
#X connect 8 1 9 0;
#X connect 9 0 5 0;
#X connect 9 1 15 0;
#X connect 15 0 10 0;
#X connect 19 0 13 0;
#X connect 20 0 17 0;
#X connect 21 0 9 1;
#X restore 46 331 pd access_arrays;
#X connect 0 0 3 0;
#X connect 2 0 26 0;
#X connect 3 0 20 0;
#X connect 3 1 6 0;
#X connect 4 0 2 0;
#X connect 4 1 5 0;
#X connect 5 0 26 0;
#X connect 6 0 4 0;
#X connect 8 0 10 0;
#X connect 9 0 8 0;
#X connect 9 1 13 1;
#X connect 10 0 19 0;
#X connect 11 0 10 1;
#X connect 12 0 7 0;
#X connect 13 0 16 0;
#X connect 14 0 18 0;
#X connect 15 0 8 1;
#X connect 15 1 10 1;
#X connect 16 0 25 0;
#X connect 16 1 17 0;
#X connect 17 0 14 0;
#X connect 18 0 15 0;
#X connect 19 0 21 0;
#X connect 19 1 14 1;
#X connect 19 2 11 0;
#X connect 20 0 9 0;
#X connect 20 1 11 1;
#X connect 20 2 16 1;
#X connect 20 2 22 0;
#X connect 20 2 25 1;
#X connect 21 0 27 0;
#X connect 22 0 21 1;
#X connect 23 0 7 0;
#X connect 24 0 12 0;
#X connect 24 1 23 0;
#X connect 25 0 24 0;
#X connect 26 0 1 0;
#X connect 26 0 27 1;
#X connect 27 0 13 0;
#X connect 27 1 12 1;
#X connect 27 2 23 1;
#X connect 27 3 14 0;
