#N canvas 248 117 795 869 10;
#X obj 130 41 inlet;
#X text 165 174 pos;
#X text 100 177 dir;
#X obj 258 263 sel 1 0;
#X obj 130 339 text search \$0-scratchable > 0;
#X obj 130 318 f;
#X obj 130 431 - 1;
#X obj 352 318 f;
#X text 153 317 forward;
#X obj 352 339 text search \$0-scratchable >= 0;
#X obj 130 411 change;
#X obj 352 411 change;
#X obj 174 549 f;
#X obj 397 549 f;
#X text 424 548 previous value;
#X obj 172 242 change;
#X obj 172 263 sel 1 0;
#X obj 163 522 + 1;
#X obj 129 565 -;
#X obj 129 586 + 1;
#X obj 352 565 -;
#X obj 352 586 * -1;
#X obj 129 697 +;
#X obj 352 696 +;
#X msg 198 641 0;
#X obj 129 641 until;
#X obj 352 641 until;
#X obj 129 662 f;
#X obj 156 662 + 1;
#X obj 352 662 f;
#X obj 352 717 text get \$0-scratchable 1 3;
#X obj 129 718 text get \$0-scratchable 1 2;
#X obj 129 501 t a a b, f 12;
#X obj 352 501 t a a b, f 12;
#X obj 130 212 t a a;
#X obj 352 738 unpack f f f;
#X obj 129 803 outlet;
#X obj 379 662 - 1;
#X msg 421 641 -1;
#X obj 172 473 f;
#X obj 352 473 f;
#X obj 130 360 sel -1;
#X obj 130 381 text size \$0-scratchable;
#X text 376 317 backwards;
#X obj 575 803 outlet;
#X msg 575 360 size \$1;
#N canvas 266 291 955 754 prepare_scratchable_text 1;
#X msg 103 248 line 0 \, auto;
#X msg 118 269 0;
#X obj 103 462 +;
#X obj 130 462 f;
#X obj 103 340 list split 1;
#X obj 137 361 list split 1;
#N canvas 0 22 450 278 (subpatch) 0;
#X array \$0-velocities 128 float 2;
#X coords 0 127 128 0 256 128 1 0 0;
#X restore 545 232 graph;
#X msg 233 248 line 0;
#X msg 282 248 step;
#X obj 282 227 metro 20;
#X obj 282 206 tgl 16 0 empty empty empty 0 -8 0 10 #fcfcfc #000000 #000000 0 1;
#X obj 103 227 t b b b;
#X msg 250 319 const 0;
#X obj 166 459 unpack;
#X obj 166 501 swap;
#X obj 166 480 t f f;
#X msg 353 319 clear;
#X msg 247 645 1e+09;
#X obj 166 607 list append;
#X obj 166 565 swap;
#X obj 166 586 pack;
#X obj 103 629 list append;
#X text 525 543 get previous velocity for note;
#X text 45 461 sum time;
#X obj 76 384 f;
#X text 129 406 <-- currently only considers midi channel 1;
#X text 210 561 write velocity to array;
#X obj 76 362 t b f;
#X obj 76 405 sel 144;
#X obj 76 605 f;
#X obj 353 340 text define \$0-scratchable;
#X obj 171 667 text insert \$0-scratchable;
#X obj 103 319 text sequence \$0-midi;
#X obj 250 340 s \$0-velocities;
#X obj 206 544 array set \$0-velocities;
#X obj 353 543 array get \$0-velocities 0 1;
#X obj 103 483 outlet;
#X msg 137 125 save temp.midi.txt;
#X msg 120 177 read temp.midi.txt;
#X obj 103 87 t b b b s;
#X msg 256 123 open \$1;
#X obj 137 146 else/midi;
#X obj 120 198 text define \$0-midi;
#X obj 103 66 inlet;
#X obj 76 426 t b b;
#X obj 166 438 list;
#X obj 491 68 inlet;
#X msg 398 319 click;
#X msg 267 165 read test.txt;
#X obj 42 178 bng 16 250 50 0 empty empty empty 0 -8 0 10 #fcfcfc #000000 #000000;
#X connect 0 0 32 0;
#X connect 1 0 2 1;
#X connect 2 0 3 0;
#X connect 2 0 29 1;
#X connect 2 0 36 0;
#X connect 3 0 2 1;
#X connect 4 0 27 0;
#X connect 4 1 5 0;
#X connect 5 0 24 1;
#X connect 5 1 45 1;
#X connect 7 0 32 0;
#X connect 8 0 32 0;
#X connect 9 0 8 0;
#X connect 10 0 9 0;
#X connect 11 0 0 0;
#X connect 11 1 1 0;
#X connect 11 2 12 0;
#X connect 11 2 16 0;
#X connect 11 2 17 0;
#X connect 12 0 33 0;
#X connect 13 0 15 0;
#X connect 13 1 14 1;
#X connect 14 0 19 0;
#X connect 14 0 34 0;
#X connect 14 1 19 1;
#X connect 14 1 34 1;
#X connect 15 0 14 0;
#X connect 15 1 35 0;
#X connect 16 0 30 0;
#X connect 17 0 31 1;
#X connect 18 0 21 1;
#X connect 19 0 20 0;
#X connect 19 1 20 1;
#X connect 20 0 18 0;
#X connect 21 0 31 0;
#X connect 24 0 28 0;
#X connect 27 0 24 0;
#X connect 27 1 2 0;
#X connect 28 0 44 0;
#X connect 29 0 21 0;
#X connect 32 0 4 0;
#X connect 35 0 18 1;
#X connect 37 0 41 0;
#X connect 38 0 42 0;
#X connect 39 0 11 0;
#X connect 39 1 38 0;
#X connect 39 2 37 0;
#X connect 39 3 40 0;
#X connect 40 0 41 0;
#X connect 43 0 39 0;
#X connect 44 0 29 0;
#X connect 44 1 45 0;
#X connect 45 0 13 0;
#X connect 46 0 47 0;
#X connect 47 0 30 0;
#X connect 48 0 42 0;
#X connect 49 0 11 0;
#X restore 575 339 pd prepare_scratchable_text;
#X obj 575 218 openpanel;
#X obj 130 67 route float;
#X obj 575 197 route bang;
#X obj 632 241 symbol;
#X obj 352 759 pack;
#X text 378 472 play until index;
#X text 66 254 force trigger on direction change, f 16;
#X text 38 361 catch case for last messages, f 14;
#X obj 575 83 route open display;
#X obj 129 607 moses 1;
#X obj 352 607 moses 1;
#X obj 176 125 >=;
#X obj 130 125 change;
#X obj 130 96 t a a a;
#X obj 130 166 swap;
#X text 275 154 FIXME: redundancy;
#X text 213 239 FIXME: this forced update seems wrong;
#X connect 0 0 48 0;
#X connect 3 0 5 0;
#X connect 3 1 7 0;
#X connect 4 0 41 0;
#X connect 5 0 4 0;
#X connect 6 0 13 1;
#X connect 6 0 39 0;
#X connect 7 0 9 0;
#X connect 9 0 11 0;
#X connect 10 0 6 0;
#X connect 11 0 12 1;
#X connect 11 0 40 0;
#X connect 12 0 22 1;
#X connect 12 0 18 1;
#X connect 13 0 23 1;
#X connect 13 0 20 1;
#X connect 15 0 16 0;
#X connect 16 0 39 0;
#X connect 16 1 40 0;
#X connect 17 0 12 1;
#X connect 18 0 19 0;
#X connect 19 0 56 0;
#X connect 20 0 21 0;
#X connect 21 0 57 0;
#X connect 22 0 31 0;
#X connect 23 0 30 0;
#X connect 24 0 27 1;
#X connect 25 0 27 0;
#X connect 26 0 29 0;
#X connect 27 0 28 0;
#X connect 27 0 22 0;
#X connect 28 0 27 1;
#X connect 29 0 23 0;
#X connect 29 0 37 0;
#X connect 30 0 35 0;
#X connect 31 0 36 0;
#X connect 32 0 18 0;
#X connect 32 1 17 0;
#X connect 32 2 12 0;
#X connect 32 2 24 0;
#X connect 33 0 20 0;
#X connect 33 1 13 1;
#X connect 33 2 13 0;
#X connect 33 2 38 0;
#X connect 34 0 15 0;
#X connect 34 1 3 0;
#X connect 35 0 51 0;
#X connect 35 2 51 1;
#X connect 37 0 29 1;
#X connect 38 0 29 1;
#X connect 39 0 32 0;
#X connect 40 0 33 0;
#X connect 41 0 42 0;
#X connect 41 1 10 0;
#X connect 42 0 10 0;
#X connect 45 0 44 0;
#X connect 46 0 45 0;
#X connect 47 0 46 0;
#X connect 48 0 60 0;
#X connect 48 1 55 0;
#X connect 49 0 47 0;
#X connect 49 1 50 0;
#X connect 50 0 46 0;
#X connect 51 0 36 0;
#X connect 55 0 49 0;
#X connect 55 1 46 1;
#X connect 56 1 25 0;
#X connect 57 1 26 0;
#X connect 58 0 61 1;
#X connect 59 0 61 0;
#X connect 60 0 59 0;
#X connect 60 1 58 1;
#X connect 60 2 58 0;
#X connect 61 0 34 0;
#X connect 61 1 7 1;
#X connect 61 1 5 1;
