#N canvas 511 96 713 755 10;
#X obj 166 44 inlet;
#X obj 396 698 outlet;
#X obj 396 141 openpanel;
#X obj 166 70 route float;
#X obj 396 120 route bang;
#X obj 453 162 symbol;
#X obj 396 86 route open display;
#X obj 185 156 until;
#X obj 185 177 f;
#X obj 185 370 list;
#X obj 185 261 <=, f 5;
#X obj 278 298 f;
#X obj 185 282 sel;
#X obj 251 298 b;
#X obj 304 298 max;
#N canvas 1155 168 357 344 time_direction_forward 0;
#X obj 39 41 inlet;
#X obj 39 274 outlet;
#X obj 39 110 t a a a, f 17;
#X obj 136 214 -;
#X obj 138 162 change;
#X obj 39 89 change;
#X obj 136 274 outlet;
#X text 38 292 readhead time;
#X text 136 292 direction;
#X obj 229 274 outlet;
#X obj 138 183 t a a a;
#X text 226 292 forward;
#X obj 138 141 > -1;
#X connect 0 0 5 0;
#X connect 2 0 1 0;
#X connect 2 1 12 1;
#X connect 2 2 12 0;
#X connect 3 0 6 0;
#X connect 4 0 10 0;
#X connect 5 0 2 0;
#X connect 10 0 3 1;
#X connect 10 1 3 0;
#X connect 10 2 9 0;
#X connect 12 0 4 0;
#X restore 166 114 pd time_direction_forward;
#X obj 226 370 list;
#X obj 185 345 sel 1 0;
#X obj 185 303 f;
#N canvas 102 125 823 841 prepare_scratchable_arrays 0;
#X msg 118 248 line 0 \, auto;
#X msg 133 269 0;
#X obj 118 462 +;
#X obj 145 462 f;
#X obj 118 340 list split 1;
#X obj 152 361 list split 1;
#X msg 265 319 const 0;
#X obj 181 459 unpack;
#X obj 181 501 swap;
#X obj 181 480 t f f;
#X obj 181 565 swap;
#X obj 118 629 list append;
#X text 408 563 get previous velocity for note;
#X text 60 461 sum time;
#X obj 91 384 f;
#X text 144 406 <-- currently only considers midi channel 1;
#X text 225 561 write velocity to array;
#X obj 91 405 sel 144;
#X obj 91 605 f;
#X obj 118 319 text sequence \$0-midi;
#X obj 48 774 outlet;
#X msg 137 125 save temp.midi.txt;
#X msg 120 177 read temp.midi.txt;
#X obj 103 87 t b b b s;
#X msg 256 125 open \$1;
#X obj 137 146 else/midi;
#X obj 120 198 text define \$0-midi;
#X obj 103 66 inlet;
#X obj 91 426 t b b;
#X obj 181 438 list;
#X msg 318 154 read test.txt;
#X obj 319 175 bng 16 250 50 0 empty empty empty 0 -8 0 10 #fcfcfc #000000 #000000;
#X obj 313 243 text size \$0-midi;
#X obj 430 302 array define \$0-pitch;
#X obj 430 323 array define \$0-velocity-right;
#X obj 430 344 array define \$0-velocity-left;
#X obj 395 496 array define \$0-velocities-temp 128;
#X obj 221 544 array set \$0-velocities-temp;
#X obj 398 544 array get \$0-velocities-temp 0 1;
#X msg 313 265 resize \$1;
#X text 305 29 FIXME: create rows including: timestamp \, pitch \, velocity \, duration;
#X obj 430 281 array define \$0-time;
#X obj 118 680 unpack f f f f;
#X obj 218 753 array set \$0-pitch;
#X obj 218 732 array set \$0-velocity-right;
#X obj 218 711 array set \$0-velocity-left;
#X obj 218 774 array set \$0-time;
#X obj 118 655 t a b;
#X obj 241 671 f;
#X obj 268 671 + 1;
#X msg 48 751 duration \$1;
#X msg 119 811 size \$1;
#X obj 103 227 t b b b b b b;
#X obj 138 731 f;
#X obj 265 340 s \$0-velocities-temp;
#X obj 181 607 pack f f f;
#X obj 91 362 t b a;
#X msg 176 810 resize \$1;
#X obj 128 771 + 1;
#X connect 0 0 19 0;
#X connect 1 0 2 1;
#X connect 1 0 48 1;
#X connect 2 0 3 0;
#X connect 2 0 18 1;
#X connect 2 0 50 0;
#X connect 3 0 2 1;
#X connect 4 0 56 0;
#X connect 4 1 5 0;
#X connect 5 0 14 1;
#X connect 5 1 29 1;
#X connect 6 0 54 0;
#X connect 7 0 9 0;
#X connect 7 1 8 1;
#X connect 8 0 10 0;
#X connect 8 0 37 0;
#X connect 8 1 10 1;
#X connect 8 1 37 1;
#X connect 9 0 8 0;
#X connect 9 1 38 0;
#X connect 10 0 55 0;
#X connect 10 1 55 1;
#X connect 11 0 47 0;
#X connect 14 0 17 0;
#X connect 17 0 28 0;
#X connect 18 0 11 0;
#X connect 19 0 4 0;
#X connect 21 0 25 0;
#X connect 22 0 26 0;
#X connect 23 0 52 0;
#X connect 23 1 22 0;
#X connect 23 2 21 0;
#X connect 23 3 24 0;
#X connect 24 0 25 0;
#X connect 27 0 23 0;
#X connect 28 0 18 0;
#X connect 28 1 29 0;
#X connect 29 0 7 0;
#X connect 30 0 26 0;
#X connect 31 0 52 0;
#X connect 32 0 39 0;
#X connect 38 0 55 2;
#X connect 39 0 33 0;
#X connect 39 0 35 0;
#X connect 39 0 34 0;
#X connect 39 0 41 0;
#X connect 42 0 46 0;
#X connect 42 1 43 0;
#X connect 42 2 44 0;
#X connect 42 3 45 0;
#X connect 47 0 42 0;
#X connect 47 1 48 0;
#X connect 48 0 49 0;
#X connect 48 0 45 1;
#X connect 48 0 46 1;
#X connect 48 0 44 1;
#X connect 48 0 43 1;
#X connect 48 0 53 1;
#X connect 49 0 48 1;
#X connect 50 0 20 0;
#X connect 51 0 20 0;
#X connect 52 0 53 0;
#X connect 52 1 0 0;
#X connect 52 2 1 0;
#X connect 52 3 6 0;
#X connect 52 5 32 0;
#X connect 53 0 58 0;
#X connect 55 0 11 1;
#X connect 56 0 14 0;
#X connect 56 1 2 0;
#X connect 57 0 35 0;
#X connect 57 0 41 0;
#X connect 57 0 34 0;
#X connect 57 0 33 0;
#X connect 58 0 51 0;
#X connect 58 0 57 0;
#X restore 396 194 pd prepare_scratchable_arrays;
#N canvas 873 252 721 579 access_arrays 0;
#X obj 85 256 array get \$0-time 0 1;
#X obj 115 277 array get \$0-pitch 0 1;
#X obj 145 298 array get \$0-velocity-right 0 1;
#X obj 175 319 array get \$0-velocity-left 0 1;
#X obj 85 88 inlet;
#X obj 85 219 t f f f f;
#X obj 188 85 inlet;
#X obj 188 106 route size;
#X obj 85 135 moses 0;
#X obj 124 155 moses;
#X obj 395 487 outlet;
#X obj 88 487 outlet;
#X text 90 506 time;
#X obj 178 487 outlet;
#X text 398 507 bang;
#X obj 141 187 b;
#X text 180 506 note-right;
#X obj 278 487 outlet;
#X text 280 506 note-left;
#X obj 115 413 pack f f;
#X obj 235 413 pack f f;
#X connect 0 0 11 0;
#X connect 1 0 19 0;
#X connect 1 0 20 0;
#X connect 2 0 19 1;
#X connect 3 0 20 1;
#X connect 4 0 8 0;
#X connect 5 0 0 0;
#X connect 5 1 1 0;
#X connect 5 2 2 0;
#X connect 5 3 3 0;
#X connect 6 0 7 0;
#X connect 7 0 9 1;
#X connect 8 0 15 0;
#X connect 8 1 9 0;
#X connect 9 0 5 0;
#X connect 9 1 15 0;
#X connect 15 0 10 0;
#X connect 19 0 13 0;
#X connect 20 0 17 0;
#X restore 185 240 pd access_arrays;
#X obj 166 135 t b b a b, f 10;
#X obj 441 338 s \$0-play-pitches;
#X obj 193 698 outlet;
#X obj 304 140 t b a;
#X obj 166 562 f;
#X obj 166 583 t f f;
#X obj 166 604 array get \$0-play-pitches 0 1;
#X obj 193 646 swap;
#X obj 193 667 pack;
#X obj 166 625 moses;
#X obj 185 436 array set \$0-play-pitches;
#X obj 185 394 swap;
#X msg 441 317 const -1;
#X obj 441 359 array define \$0-play-pitches 128;
#X obj 212 177 + -1;
#X obj 185 198 t a a a;
#X obj 313 203 ==;
#X obj 185 219 -;
#X obj 357 436 max;
#X obj 357 410 t f f;
#X obj 413 436 min;
#X msg 396 410 0;
#X msg 441 410 128;
#X obj 357 483 -;
#X obj 413 457 t b f;
#X obj 384 436 f;
#X obj 441 436 f;
#X obj 357 504 + 1;
#X obj 193 563 + 1;
#X obj 166 541 until;
#X obj 166 520 f;
#X obj 166 483 spigot 0;
#X obj 158 324 t b f;
#X msg 158 345 1;
#X text 45 561 output filtered notes (from lowest to highest), f 18;
#X text 12 483 output if values present;
#X text 466 435 determine lowest and highest pitch;
#X text 289 240 get values from scratchable arrays;
#X connect 0 0 3 0;
#X connect 2 0 19 0;
#X connect 3 0 15 0;
#X connect 3 1 6 0;
#X connect 4 0 2 0;
#X connect 4 1 5 0;
#X connect 5 0 19 0;
#X connect 6 0 4 0;
#X connect 7 0 8 0;
#X connect 8 0 36 0;
#X connect 9 0 32 0;
#X connect 10 0 12 0;
#X connect 11 0 14 0;
#X connect 12 0 18 0;
#X connect 12 1 13 0;
#X connect 13 0 11 0;
#X connect 14 0 24 0;
#X connect 15 0 21 0;
#X connect 15 1 35 1;
#X connect 15 2 12 1;
#X connect 15 2 18 1;
#X connect 15 2 37 0;
#X connect 16 0 32 0;
#X connect 17 0 9 0;
#X connect 17 1 16 0;
#X connect 18 0 53 0;
#X connect 19 0 1 0;
#X connect 19 0 20 1;
#X connect 20 0 10 0;
#X connect 20 1 9 1;
#X connect 20 2 16 1;
#X connect 20 3 11 0;
#X connect 21 0 52 0;
#X connect 21 1 7 0;
#X connect 21 2 10 1;
#X connect 21 3 33 0;
#X connect 21 3 42 0;
#X connect 21 3 43 0;
#X connect 24 0 7 1;
#X connect 24 1 8 1;
#X connect 25 0 26 0;
#X connect 25 0 49 0;
#X connect 26 0 27 0;
#X connect 26 1 28 1;
#X connect 27 0 30 0;
#X connect 28 0 29 0;
#X connect 28 1 29 1;
#X connect 29 0 23 0;
#X connect 30 1 28 0;
#X connect 32 0 31 0;
#X connect 32 1 31 1;
#X connect 32 1 40 0;
#X connect 33 0 22 0;
#X connect 35 0 8 1;
#X connect 36 0 38 0;
#X connect 36 1 11 1;
#X connect 36 2 35 0;
#X connect 37 0 38 1;
#X connect 38 0 20 0;
#X connect 39 0 44 0;
#X connect 39 0 46 0;
#X connect 40 0 39 0;
#X connect 40 1 41 0;
#X connect 41 0 45 0;
#X connect 41 0 47 0;
#X connect 41 0 25 1;
#X connect 42 0 46 0;
#X connect 42 0 52 1;
#X connect 43 0 47 0;
#X connect 44 0 48 0;
#X connect 45 0 44 0;
#X connect 45 1 44 1;
#X connect 46 0 39 1;
#X connect 47 0 41 1;
#X connect 48 0 51 1;
#X connect 49 0 25 1;
#X connect 50 0 25 0;
#X connect 51 0 50 0;
#X connect 52 0 51 0;
#X connect 53 0 54 0;
#X connect 53 1 17 0;
#X connect 54 0 52 1;
