#N canvas 1025 60 612 655 10;
#X obj 68 54 inlet;
#X obj 328 571 outlet;
#X msg 328 288 size \$1;
#N canvas 0 418 955 754 prepare_scratchable_text 0;
#X msg 103 248 line 0 \, auto;
#X msg 118 269 0;
#X obj 103 462 +;
#X obj 130 462 f;
#X obj 103 340 list split 1;
#X obj 137 361 list split 1;
#N canvas 0 22 450 278 (subpatch) 0;
#X array \$0-velocities 128 float 2;
#X coords 0 127 128 0 256 128 1 0 0;
#X restore 545 232 graph;
#X msg 233 248 line 0;
#X msg 282 248 step;
#X obj 282 227 metro 20;
#X obj 282 206 tgl 16 0 empty empty empty 0 -8 0 10 #fcfcfc #000000 #000000 0 1;
#X obj 103 227 t b b b;
#X msg 250 319 const 0;
#X obj 166 459 unpack;
#X obj 166 501 swap;
#X obj 166 480 t f f;
#X msg 353 319 clear;
#X msg 247 645 1e+09;
#X obj 166 607 list append;
#X obj 166 565 swap;
#X obj 166 586 pack;
#X obj 103 629 list append;
#X text 525 543 get previous velocity for note;
#X text 45 461 sum time;
#X obj 76 384 f;
#X text 129 406 <-- currently only considers midi channel 1;
#X text 210 561 write velocity to array;
#X obj 76 362 t b f;
#X obj 76 405 sel 144;
#X obj 76 605 f;
#X obj 353 340 text define \$0-scratchable;
#X obj 171 667 text insert \$0-scratchable;
#X obj 103 319 text sequence \$0-midi;
#X obj 250 340 s \$0-velocities;
#X obj 206 544 array set \$0-velocities;
#X obj 353 543 array get \$0-velocities 0 1;
#X obj 103 483 outlet;
#X msg 137 125 save temp.midi.txt;
#X msg 120 177 read temp.midi.txt;
#X obj 103 87 t b b b s;
#X msg 256 123 open \$1;
#X obj 137 146 else/midi;
#X obj 120 198 text define \$0-midi;
#X obj 103 66 inlet;
#X obj 76 426 t b b;
#X obj 166 438 list;
#X obj 398 66 inlet;
#X msg 398 319 click;
#X text 305 29 create rows including: timestamp \, pitch \, velocity \, duration;
#X msg 251 163 read test.txt;
#X obj 60 165 bng 16 250 50 0 empty empty empty 0 -8 0 10 #fcfcfc #000000 #000000;
#X connect 0 0 32 0;
#X connect 1 0 2 1;
#X connect 2 0 3 0;
#X connect 2 0 29 1;
#X connect 2 0 36 0;
#X connect 3 0 2 1;
#X connect 4 0 27 0;
#X connect 4 1 5 0;
#X connect 5 0 24 1;
#X connect 5 1 45 1;
#X connect 7 0 32 0;
#X connect 8 0 32 0;
#X connect 9 0 8 0;
#X connect 10 0 9 0;
#X connect 11 0 0 0;
#X connect 11 1 1 0;
#X connect 11 2 12 0;
#X connect 11 2 16 0;
#X connect 11 2 17 0;
#X connect 12 0 33 0;
#X connect 13 0 15 0;
#X connect 13 1 14 1;
#X connect 14 0 19 0;
#X connect 14 0 34 0;
#X connect 14 1 19 1;
#X connect 14 1 34 1;
#X connect 15 0 14 0;
#X connect 15 1 35 0;
#X connect 16 0 30 0;
#X connect 17 0 31 1;
#X connect 18 0 21 1;
#X connect 19 0 20 0;
#X connect 19 1 20 1;
#X connect 20 0 18 0;
#X connect 21 0 31 0;
#X connect 24 0 28 0;
#X connect 27 0 24 0;
#X connect 27 1 2 0;
#X connect 28 0 44 0;
#X connect 29 0 21 0;
#X connect 32 0 4 0;
#X connect 35 0 18 1;
#X connect 37 0 41 0;
#X connect 38 0 42 0;
#X connect 39 0 11 0;
#X connect 39 1 38 0;
#X connect 39 2 37 0;
#X connect 39 3 40 0;
#X connect 40 0 41 0;
#X connect 43 0 39 0;
#X connect 44 0 29 0;
#X connect 44 1 45 0;
#X connect 45 0 13 0;
#X connect 46 0 47 0;
#X connect 47 0 30 0;
#X connect 49 0 42 0;
#X connect 50 0 11 0;
#X restore 328 267 pd prepare_scratchable_text;
#X obj 328 181 openpanel;
#X obj 68 80 route float;
#X obj 328 160 route bang;
#X obj 385 202 symbol;
#X obj 328 96 route open display;
#X obj 68 358 text get \$0-scratchable;
#X obj 68 585 outlet;
#X obj 68 216 until;
#X obj 68 175 t b a, f 10;
#X obj 68 257 f;
#X obj 95 257 + 1;
#X obj 68 379 route list bang;
#X obj 68 531 list, f 6;
#X obj 68 433 <=, f 10;
#X obj 147 470 f;
#X obj 173 200 t b f;
#X obj 68 454 sel;
#X obj 120 470 b;
#X obj 173 470 max;
#X obj 68 278 t a a a;
#N canvas 1155 168 357 344 time_direction_forward 0;
#X obj 39 41 inlet;
#X obj 39 274 outlet;
#X obj 138 141 >;
#X obj 39 110 t a a a, f 17;
#X obj 136 214 -;
#X obj 138 162 change;
#X obj 39 89 change;
#X obj 136 274 outlet;
#X text 38 292 readhead time;
#X text 136 292 direction;
#X obj 229 274 outlet;
#X obj 138 183 t a a a;
#X text 226 292 forward;
#X connect 0 0 6 0;
#X connect 2 0 5 0;
#X connect 3 0 1 0;
#X connect 3 1 2 1;
#X connect 3 2 2 0;
#X connect 4 0 7 0;
#X connect 5 0 11 0;
#X connect 6 0 3 0;
#X connect 11 0 4 1;
#X connect 11 1 4 0;
#X connect 11 2 10 0;
#X restore 68 154 pd time_direction_forward;
#X obj 68 320 -;
#X obj 215 304 == 0;
#X obj 68 412 list split 1;
#X msg 68 552 \$1 \$2;
#X msg 118 552 \$1 \$3;
#X obj 118 531 list, f 6;
#X obj 68 503 sel 1 0;
#X obj 68 481 f;
#X connect 0 0 5 0;
#X connect 2 0 1 0;
#X connect 3 0 2 0;
#X connect 4 0 3 0;
#X connect 5 0 24 0;
#X connect 5 1 8 0;
#X connect 6 0 4 0;
#X connect 6 1 7 0;
#X connect 7 0 3 0;
#X connect 8 0 6 0;
#X connect 8 1 3 1;
#X connect 9 0 15 0;
#X connect 11 0 13 0;
#X connect 12 0 11 0;
#X connect 12 1 17 1;
#X connect 13 0 23 0;
#X connect 14 0 13 1;
#X connect 15 0 27 0;
#X connect 15 1 18 0;
#X connect 16 0 28 0;
#X connect 17 0 20 0;
#X connect 18 0 22 0;
#X connect 19 0 11 1;
#X connect 19 1 13 1;
#X connect 20 0 32 0;
#X connect 20 1 21 0;
#X connect 21 0 18 0;
#X connect 22 0 19 0;
#X connect 23 0 25 0;
#X connect 23 1 18 1;
#X connect 23 2 14 0;
#X connect 24 0 12 0;
#X connect 24 1 14 1;
#X connect 24 2 20 1;
#X connect 24 2 26 0;
#X connect 24 2 32 1;
#X connect 25 0 9 0;
#X connect 26 0 25 1;
#X connect 27 0 17 0;
#X connect 27 1 16 1;
#X connect 27 1 30 1;
#X connect 28 0 10 0;
#X connect 29 0 10 0;
#X connect 30 0 29 0;
#X connect 31 0 16 0;
#X connect 31 1 30 0;
#X connect 32 0 31 0;
