#N canvas 359 109 970 699 10;
#X obj 46 452 else/keyboard 18 100 7 1 0 0 empty empty;
#X obj 49 152 hsl 878 16 -200 200000 0 0 empty empty empty -2 -8 0 10 #69daff #000000 #000000 0 1;
#X msg 54 431 flush;
#X obj 46 88 spigot;
#X obj 91 88 tgl 16 1 empty empty empty 0 -8 0 10 #fcfcfc #000000 #000000 1 1;
#X floatatom 339 410 8 0 0 0 - - - 0;
#X floatatom 46 173 11 0 0 0 - - - 0;
#X obj 46 67 line;
#X text 229 573 <-- replace with other soundfont or synth;
#X obj 46 595 output~;
#X obj 46 574 else/sfont~ else/sf/waves.sf2;
#X text 482 321 <-- test file (part of ELSE);
#X msg 339 322 open else/midi-seq.mid;
#X msg 339 256 open;
#X text 796 50 requires ELSE library;
#X text 830 636 Ben Wesch \, 2024;
#X text 117 172 read head position in ms;
#X text 464 50 <-- play backwards from 200s;
#X obj 339 389 route size duration;
#X floatatom 394 410 11 0 0 0 - - - 0;
#X obj 46 338 midiscratch;
#X text 102 225 smooth input;
#X obj 46 256 t f f f;
#X obj 85 287 -;
#X obj 186 637 noteout;
#X text 373 255 <-- open midi file and prepare scratchable [text] data;
#X text 397 274 ATTENTION: this will create a temp.midi.txt file in the patch directory, f 43;
#N canvas 655 148 465 674 schedule_notes 0;
#X obj 44 47 inlet;
#X obj 128 47 inlet;
#X obj 258 47 inlet;
#X obj 125 310 *;
#X obj 138 289 pow -1;
#X text 342 270 silence;
#X text 43 258 note-off piped with dyamic delay, f 17;
#X obj 128 209 abs;
#X obj 125 331 + 50;
#X text 193 270 50ms delayed note-on;
#X obj 128 230 min 4;
#X text 164 229 (max. 4 times duration ... arbitrary limit);
#X obj 258 87 t b b;
#X msg 285 108 const -1;
#X obj 44 403 list split 1;
#X obj 44 564 list, f 13;
#X obj 44 482 sel 1;
#X obj 44 503 t b b;
#X obj 44 424 t a a, f 7;
#X obj 68 524 f;
#X obj 97 424 t f a f, f 8;
#X obj 44 612 outlet;
#X obj 140 124 f;
#X msg 155 103 0;
#X obj 44 145 list prepend;
#X obj 44 108 t a b;
#X obj 44 230 t a a a;
#X obj 345 352 pack f f 0;
#X obj 345 331 list split 2;
#X obj 44 289 unpack f f f f;
#X obj 44 352 pack f f 0;
#X obj 194 352 pack f f f;
#X obj 100 498 pack;
#X obj 194 289 unpack f f f;
#X obj 44 461 >=;
#X obj 167 124 + 1;
#X obj 194 331 pipe f f f 50;
#X obj 44 331 pipe f f 0;
#X obj 130 564 array set \$0-last-played;
#X obj 221 505 array define \$0-last-played 128;
#X obj 97 445 array get \$0-last-played 0 1;
#X obj 285 129 s \$0-last-played;
#X connect 0 0 25 0;
#X connect 1 0 7 0;
#X connect 2 0 12 0;
#X connect 3 0 8 0;
#X connect 4 0 3 1;
#X connect 7 0 10 0;
#X connect 8 0 37 2;
#X connect 10 0 4 0;
#X connect 12 0 23 0;
#X connect 12 1 13 0;
#X connect 13 0 41 0;
#X connect 14 0 18 0;
#X connect 14 1 20 0;
#X connect 15 0 21 0;
#X connect 16 0 17 0;
#X connect 17 0 15 0;
#X connect 17 1 19 0;
#X connect 18 0 34 0;
#X connect 18 1 19 1;
#X connect 18 1 32 0;
#X connect 19 0 38 0;
#X connect 20 0 40 0;
#X connect 20 1 15 1;
#X connect 20 2 38 1;
#X connect 22 0 24 1;
#X connect 22 0 35 0;
#X connect 23 0 22 1;
#X connect 24 0 26 0;
#X connect 25 0 24 0;
#X connect 25 1 22 0;
#X connect 26 0 29 0;
#X connect 26 1 33 0;
#X connect 26 2 28 0;
#X connect 27 0 14 0;
#X connect 28 0 27 0;
#X connect 29 0 37 0;
#X connect 29 1 37 1;
#X connect 29 3 3 0;
#X connect 30 0 14 0;
#X connect 31 0 14 0;
#X connect 33 0 36 0;
#X connect 33 1 36 1;
#X connect 33 2 36 2;
#X connect 34 0 16 0;
#X connect 35 0 22 1;
#X connect 36 0 31 0;
#X connect 36 1 31 1;
#X connect 36 2 31 2;
#X connect 37 0 30 0;
#X connect 37 1 30 1;
#X connect 40 0 32 1;
#X connect 40 0 34 1;
#X restore 46 389 pd schedule_notes;
#X floatatom 85 308 5 0 0 0 - - - 0;
#X obj 46 226 line 0 1;
#X text 171 46 <-- play forward to 200s;
#X text 464 90 <-- play forward 4x speed;
#X text 109 287 "speed" measurement for śpeed factor;
#X msg 339 51 200000 \, -200 200200;
#X msg 339 88 -800 \, 400000 100200;
#X msg 46 46 -200 \, 200000 200200;
#X text 722 175 current slider range: -200ms..200s;
#X msg 54 131 -200;
#X msg 129 131 10000;
#X msg 94 131 0;
#X obj 46 205 pack f 100;
#X msg 46 25 -200;
#X connect 0 0 10 0;
#X connect 0 0 24 0;
#X connect 1 0 6 0;
#X connect 2 0 0 0;
#X connect 3 0 1 0;
#X connect 4 0 3 1;
#X connect 6 0 40 0;
#X connect 7 0 3 0;
#X connect 10 0 9 0;
#X connect 10 1 9 1;
#X connect 12 0 20 0;
#X connect 13 0 20 0;
#X connect 18 0 5 0;
#X connect 18 1 19 0;
#X connect 20 0 27 0;
#X connect 20 1 18 0;
#X connect 20 1 27 2;
#X connect 22 0 20 0;
#X connect 22 1 23 1;
#X connect 22 2 23 0;
#X connect 23 0 28 0;
#X connect 27 0 0 0;
#X connect 28 0 27 1;
#X connect 29 0 22 0;
#X connect 33 0 7 0;
#X connect 34 0 7 0;
#X connect 35 0 7 0;
#X connect 37 0 1 0;
#X connect 38 0 1 0;
#X connect 39 0 1 0;
#X connect 40 0 29 0;
#X connect 41 0 7 0;
